<svg xmlns="http://www.w3.org/2000/svg" xmlns:xlink="http://www.w3.org/1999/xlink" width="635" height="635" viewBox="0 0 635 635">
    <defs>
        <path id="xiezky0x7a" d="M0 0H635V635H0z"/>
        <path id="p5vj5wznqc" d="M257.221 68.084c89.923 1.8 265.852 71.585 300.692 145.512 33.927 71.992 5.773 115.779-81.878 202.432-41.502 41.028-53.608 122.031-185.704 127.238-86.99 3.429-130.372-56.682-170.317-98.632-39.944-41.95-51.216-83.769-57.645-136.32-6.428-52.55 11.233-97.275 39.958-147.03 28.725-49.754 64.972-95 154.894-93.2z"/>
        <path id="g23d2urf2e" d="M0.651 0.42L312.544 0.42 312.544 176.224 0.651 176.224z"/>
        <path id="4105xz7kjg" d="M0.914 0.672L182.254 0.672 182.254 109.49 0.914 109.49z"/>
    </defs>
    <g fill="none" fill-rule="evenodd">
        <g>
            <g transform="translate(-144 -194) translate(144 194)">
                <mask id="9tsjcck27b" fill="#fff">
                    <use xlink:href="#xiezky0x7a"/>
                </mask>
                <use fill="#FFF" fill-opacity="0" xlink:href="#xiezky0x7a"/>
                <g mask="url(#9tsjcck27b)">
                    <g transform="translate(-19 10.33)">
                        <mask id="kflzccdahd" fill="#fff">
                            <use xlink:href="#p5vj5wznqc"/>
                        </mask>
                        <use fill="#A35AAD" transform="scale(-1 1) rotate(-18 0 2303.775)" xlink:href="#p5vj5wznqc"/>
                        <g mask="url(#kflzccdahd)">
                            <g>
                                <path fill="#F07D90" d="M446.033 435.228l27.463-82.02-126.3 48.35c-6.52-113.554-21.63-196.386-115.79-196.386-4.4 0-158.7-.422-167.293-.422-61.482.758-64.248 55.41-63.76 141.938.76 134.35 12.904 157.88 23.53 159.4L19.33 527.34c-9.908 63.534 267.456 56.16 269.274 8.392l48.288-36.604 109.142-63.9z" transform="translate(19 28)"/>
                                <path fill="#D84E6C" d="M270.523 556.045L268.879 555.983 277.507 329.507 279.151 329.573z" transform="translate(19 28)"/>
                                <path fill="#E8C199" d="M214.415 162.132l-75.668-3.722-14.11 55.932c34.828 40.2 81.5 20.924 81.916 1.816l7.862-54.026z" transform="translate(19 28)"/>
                                <path fill="#8F504B" d="M187.163 170.627L212.853 172.865 210.815 186.865z" transform="translate(19 28)"/>
                                <path fill="#D84E6C" d="M330.03 414.322L329.084 412.976 349.046 398.956 349.99 400.302z" transform="translate(19 28)"/>
                                <path fill="#E8C199" d="M216.768 205.546c0 46.926-101.57 46.922-101.57 0 0-.124 0-.252.006-.374h101.56c.004.122.004.25.004.374" transform="translate(19 28)"/>
                                <g transform="translate(19 28) translate(308 342)">
                                    <mask id="i0t5glt09f" fill="#fff">
                                        <use xlink:href="#g23d2urf2e"/>
                                    </mask>
                                    <path fill="#D8D1A7" d="M298.837.42H68.133c-9.064 0-17.05 5.96-19.63 14.65L.651 176.224h264.342L311.97 18.018C314.577 9.236 307.997.42 298.837.42" mask="url(#i0t5glt09f)"/>
                                </g>
                                <path fill="#D8D1A7" d="M192.326 511.216h360.248v7.008H185.318c0-3.872 3.136-7.008 7.008-7.008" transform="translate(19 28)"/>
                                <path fill="#FFF" d="M486.633 430.086c-1.132 7.256-7.93 13.136-15.186 13.136s-12.22-5.88-11.088-13.136c1.132-7.256 7.93-13.136 15.186-13.136 7.254 0 12.22 5.88 11.088 13.136" transform="translate(19 28)"/>
                                <path fill="#E1A37A" d="M210.335 191.337s-53.58-7.12-53.366-7.082l50.856 21.632 2.51-14.55z" transform="translate(19 28)"/>
                                <path fill="#231F20" d="M212.454.916s37.914 11.608 52.194 6.976c-1.066 6.242-5.272 13.632-5.272 13.632s7.722 4.396 18.98-2.926c-.876 35.936-22.254 44.716-22.254 44.716l-20.092.424L212.454.916z" transform="translate(19 28)"/>
                                <path fill="#E8C199" d="M195.055 458.052s33.238 13.198 44.788 12.608c11.548-.592 56.27-15.71 56.27-15.71s5.344.894 6.726 5.136c1.382 4.242-.354 8.042-4.344 9.028-3.988.986-29.208 11.176-29.208 11.176l60.248 21.614s7.594 3.232 7.218 9.384c-.374 6.152-4.83 5.252-4.83 5.252s12.032 2.716 9.462 11.254c-2.572 8.54-13.306 2.5-13.306 2.5s6.226.41 3.666 9.894c-2.56 9.486-20.442.21-20.442.21s8.46 1.332 5.878 8.926c-2.582 7.594-15.074 3.464-15.074 3.464L174.769 512.96l20.286-54.908z" transform="translate(19 28)"/>
                                <path fill="#E0A27A" d="M317.81 543.705L272.292 527.617 272.672 526.541 318.19 542.629zM331.458 532.216L275.674 512.448 276.056 511.372 331.84 531.14zM331.745 517.084L279.995 500.114 280.349 499.028 332.101 515.998z" transform="translate(19 28)"/>
                                <path fill="#F07D90" d="M223.511 457.507L201.119 530.755 164.685 519.749 185.179 449.159z" transform="translate(19 28)"/>
                            </g>
                        </g>
                        <path fill="#231F20" d="M204.373 22.953l14.256 2.43c10.367 1.768 19.72 5.947 27.58 11.865 10.652 6.154 20.49 14.775 26.389 24.794.406.676.792 1.348 1.146 2.034 8.287 16.016 5.214 33.468.462 50.92l-.326 1.19c-.164.595-.33 1.19-.498 1.784-1.268 4.508-7.988 28.186-9.478 32.264-.249.68-.944-.25-1.727-1.165l-.494 2.902c-6.164 36.162-40.792 60.702-76.952 54.54l-26.472.936c-.93.908-45.548-43.658-39.386-79.818l8.548-50.14c6.164-36.158 40.792-60.7 76.952-54.536z"/>
                        <path fill="#E8C199" d="M181.03 81.446c.168.14.379.312.63.514l.318.256c5.24 4.185 23.98 18.154 45.781 22.586 17.016 3.462 31.752-7.264 41.626-2.53 1.712.822 1.402 6.256.745 11.318l-.091.688c-.28 2.053-.606 4.006-.862 5.518l-.028.268-12.052 67.35c-4.894 28.708-27.99 34.092-44.38 33.584-.358-.039-2.055-.308-3.794-.59l-.652-.105c-1.621-.263-3.136-.512-3.474-.567l-27.006-4.328.04-.234-7.206-1.276c-18.436-3.276-30.886-19.972-27.824-37.306 1.152-6.505 2.285-13.02 3.438-19.53-7.988 1.048-15.912-5.663-17.966-15.429-2.13-10.13 2.858-19.712 11.14-21.402 4.531-.923 9.11.706 12.677 4.03.3-1.836.606-3.73.912-5.63l.189-1.17.187-1.167c1.406-8.748 2.738-17.16 3.313-20.14 4.386-22.794 12.498-24.484 24.338-14.708z"/>
                        <g transform="translate(119 12)">
                            <mask id="m982dgv4dh" fill="#fff">
                                <use xlink:href="#4105xz7kjg"/>
                            </mask>
                            <path fill="#231F20" d="M116.688 13.13C105.06-.932 82.27-4.938 69.652 10.834 8.39 7.206 10.414 55.278.914 109.49l.112-.01 32.666-3.6 1.518-5.566S52.874 88.15 61.074 68.856l75.68 15.322c2.226.386 4.446.558 6.642.558 17.596-.014 33.558-11.996 37.862-29.858 7.978-33.098-33.648-65.608-64.57-41.748" mask="url(#m982dgv4dh)"/>
                        </g>
                        <g>
                            <path fill="#E8C199" d="M33.236 10.845L32.25 23.95c-.372 4.784-4.128 8.654-8.344 8.598-4.214-.058-7.36-4.02-6.986-8.806l.986-13.104c.372-4.786 4.126-8.656 8.342-8.596 4.216.056 7.362 4.018 6.988 8.804M51.342 17.601l-2.062 10.99c-.888 4.742-5.002 8.094-9.14 7.446-4.138-.646-6.796-5.056-5.906-9.796l2.062-10.99c.888-4.742 5.002-8.094 9.14-7.446 4.138.646 6.794 5.054 5.906 9.796M66.016 26.214L64.448 34.9c-.972 4.728-5.138 7.99-9.256 7.25-4.12-.742-6.694-5.218-5.722-9.944l1.568-8.686c.972-4.728 5.136-7.99 9.256-7.25 4.118.74 6.694 5.216 5.722 9.944M15.383 7.627l.466 11.006c.2 4.75-3.092 9.12-7.322 9.71-4.226.59-7.85-2.812-8.05-7.56L.009 9.777c-.2-4.75 3.094-9.118 7.324-9.71 4.226-.59 7.848 2.812 8.05 7.56" transform="translate(501.731 347.66)"/>
                        </g>
                        <g>
                            <path fill="#231F20" d="M56.085 12.96c-2.254.457-3.946-3.07-2.615-5.975-.29-2.963 2.087-6.718 4.302-6.971 2.217-.253 4.113 3.004 2.791 5.875-.233 3.158-2.228 6.62-4.478 7.07zM106.085 22.96c-2.254.457-3.946-3.07-2.615-5.975-.29-2.963 2.087-6.718 4.302-6.971 2.217-.253 4.113 3.004 2.791 5.875-.233 3.158-2.228 6.62-4.478 7.07z" transform="translate(137.388 129.322)"/>
                            <path fill="#E0A27A" d="M51.947 23.847c-.333 1.513-2.143 2.441-4.031 2.072l-7.037-1.362c-1.895-.368-3.163-1.89-2.824-3.404.335-1.51 2.14-2.442 4.034-2.072l7.027 1.363c1.899.364 3.163 1.89 2.83 3.403M114.06 40.89l-7.052-1.427c-1.898-.381-3.235-1.673-2.976-2.873.256-1.201 2.01-1.868 3.91-1.479l7.054 1.427c1.895.38 3.228 1.672 2.973 2.873-.254 1.207-2.012 1.865-3.91 1.478z" transform="translate(137.388 129.322)"/>
                            <path stroke="#9A6B48" stroke-linecap="round" stroke-width="1.9" d="M1.721 3L8 11.358 0 14" transform="translate(137.388 129.322)"/>
                            <path fill="#9A6B48" fill-rule="nonzero" d="M48.003 45.977c10.315-1.94 24.327 3.585 33.9 15.708.513.65.402 1.594-.248 2.107-.65.513-1.593.403-2.107-.248-8.892-11.262-21.792-16.349-30.99-14.618-.814.153-1.599-.383-1.752-1.197-.153-.814.383-1.598 1.197-1.752z" transform="translate(137.388 129.322)"/>
                        </g>
                        <path fill="#CE92D6" fill-rule="nonzero" d="M311.752 164.485l1.656-52h-15l1.655 52h11.689zm-5.451 24.85c2.41 0 4.35-.752 5.82-2.256 1.47-1.504 2.205-3.41 2.205-5.718 0-2.343-.735-4.267-2.205-5.77-1.47-1.504-3.41-2.256-5.82-2.256-2.378 0-4.301.76-5.771 2.282-1.47 1.521-2.204 3.436-2.204 5.744s.734 4.214 2.204 5.718c1.47 1.504 3.393 2.256 5.77 2.256z" transform="rotate(25 306.326 150.91)"/>
                    </g>
                </g>
            </g>
        </g>
    </g>
</svg>
